<?xml version="1.0" standalone="no"?>
<!DOCTYPE svg PUBLIC "-//W3C//DTD SVG 20010904//EN"
 "http://www.w3.org/TR/2001/REC-SVG-20010904/DTD/svg10.dtd">
<svg version="1.0" xmlns="http://www.w3.org/2000/svg"
 width="960.000000pt" height="960.000000pt" viewBox="0 0 960.000000 960.000000"
 preserveAspectRatio="xMidYMid meet">
<metadata>
Created by potrace 1.14, written by Peter Selinger 2001-2017
</metadata>
<g transform="translate(0.000000,960.000000) scale(0.100000,-0.100000)"
fill="#000000" stroke="none">
<path d="M0 7059 l0 -2541 72 7 c40 4 148 8 240 8 l168 2 82 -82 c45 -46 85
-83 90 -83 4 0 8 -5 8 -11 0 -12 -16 -10 -102 11 -42 10 -47 14 -50 43 -4 43
-21 37 -30 -11 -4 -22 -22 -67 -40 -101 -90 -168 -83 -145 -80 -267 2 -98 0
-114 -18 -137 -23 -29 -52 -27 -67 6 -6 12 -23 71 -38 130 l-28 108 31 92 c36
108 48 167 34 167 -13 0 -102 -241 -102 -277 0 -16 9 -56 19 -89 35 -108 40
-134 28 -134 -16 0 -74 35 -125 77 l-42 35 6 166 c7 186 -6 213 -25 52 -17
-144 -17 -210 2 -247 22 -42 22 -44 -8 -33 l-25 10 0 -716 0 -716 22 5 c13 3
63 19 113 36 150 51 173 56 410 100 150 28 524 39 605 17 57 -15 86 -11 54 8
-11 6 -88 12 -176 14 -87 2 -158 7 -158 11 0 8 49 33 100 52 67 24 178 77 184
88 12 19 58 12 110 -18 28 -16 78 -34 111 -41 33 -6 86 -18 118 -27 46 -11
140 -15 433 -17 268 -2 378 -6 386 -14 7 -7 18 -12 25 -12 7 0 13 -3 13 -7 0
-9 -65 -63 -75 -63 -3 0 -32 -17 -63 -37 -64 -42 -68 -45 -203 -102 -53 -23
-103 -41 -111 -41 -8 0 -70 -18 -138 -40 -69 -22 -152 -45 -185 -51 -33 -6
-81 -17 -106 -25 -26 -7 -104 -27 -175 -43 -71 -17 -147 -35 -169 -40 -22 -6
-121 -31 -220 -55 -99 -25 -261 -70 -360 -101 -99 -32 -200 -63 -225 -70 -25
-7 -58 -18 -75 -24 -16 -5 -61 -19 -100 -31 -38 -11 -87 -28 -107 -37 l-38
-16 0 -254 c0 -139 4 -253 8 -253 5 0 17 9 27 20 20 22 116 72 123 65 3 -3 0
-5 -6 -5 -7 0 -12 -5 -12 -12 0 -6 -24 -34 -53 -62 -97 -94 -87 -9 -87 -771
l0 -675 4800 0 4800 0 0 4800 0 4800 -4800 0 -4800 0 0 -2541z m7541 94 c-5
-37 -13 -93 -16 -123 -14 -129 -52 -260 -74 -260 -15 0 -91 82 -91 97 0 8 14
36 32 62 31 45 128 229 128 243 0 4 5 19 10 34 17 45 23 19 11 -53z m123 -40
c4 -16 10 -99 13 -185 5 -134 3 -162 -11 -192 -33 -69 -58 -188 -52 -247 5
-54 48 -177 100 -289 33 -70 32 -92 -2 -132 -43 -51 -62 -103 -62 -168 0 -70
-11 -102 -50 -147 -18 -20 -30 -45 -30 -61 0 -16 -8 -37 -17 -48 -39 -43 -63
-84 -63 -106 0 -64 -49 -174 -97 -221 -35 -33 -47 -38 -112 -46 -42 -5 -96 -6
-125 -1 -50 8 -234 73 -293 103 -16 9 -59 26 -94 38 -35 12 -69 25 -75 30 -22
17 -132 43 -189 44 -64 2 -110 -17 -190 -76 -72 -52 -174 -119 -203 -131 -15
-7 -45 -23 -67 -37 -43 -26 -153 -63 -166 -55 -4 2 -13 21 -20 42 -41 124
-269 492 -386 621 -18 20 -33 42 -33 48 0 7 32 29 72 49 67 34 79 36 153 35
63 -1 108 6 210 33 150 39 166 45 295 108 l95 46 45 -43 c50 -48 110 -71 143
-54 16 9 17 13 6 20 -8 5 -23 9 -35 9 -28 0 -116 68 -112 87 2 8 28 28 58 45
30 16 73 45 95 63 46 37 106 75 119 75 5 0 5 -19 1 -42 -13 -78 -11 -112 7
-116 22 -4 60 80 82 179 16 71 20 79 68 120 81 69 285 278 336 344 46 60 70
84 85 85 16 0 5 -26 -38 -91 -25 -38 -45 -73 -45 -78 0 -15 17 -22 63 -26 128
-12 193 -28 200 -49 6 -22 -5 -146 -13 -146 -10 0 -17 7 -67 73 -20 26 -38 46
-40 44 -8 -9 38 -95 69 -127 53 -55 117 -102 132 -97 14 6 26 71 26 142 0 35
4 44 21 48 12 3 18 10 14 16 -11 19 11 12 30 -9 19 -21 55 -27 55 -9 0 6 -13
27 -30 46 -16 18 -30 41 -30 49 0 9 13 41 30 72 68 131 77 160 96 295 8 53 18
61 28 20z m-439 -127 c-25 -33 -45 -46 -45 -29 0 10 63 74 68 69 2 -3 -8 -21
-23 -40z m105 -206 c0 -5 18 -19 40 -30 50 -26 51 -31 3 -16 -53 16 -77 31
-69 45 9 14 26 15 26 1z m75 -180 c0 -19 -6 -26 -24 -28 -19 -3 -22 0 -17 13
3 9 6 23 6 32 0 8 7 13 18 11 11 -2 17 -12 17 -28z m-4135 -465 c93 -18 181
-46 268 -84 37 -16 117 -44 177 -61 61 -17 126 -36 146 -42 65 -19 105 6 52
32 -27 13 -25 14 47 22 86 9 346 2 417 -12 82 -15 187 -70 253 -132 14 -13 56
-48 95 -79 151 -122 258 -241 296 -330 53 -124 51 -315 -7 -654 -25 -146 -81
-375 -107 -435 -8 -19 -20 -53 -27 -75 -17 -55 -81 -164 -100 -170 -8 -3 -33
-21 -54 -40 -22 -19 -54 -39 -70 -46 -36 -13 -67 -25 -98 -38 -67 -28 -230
-34 -938 -35 l-725 0 -70 23 c-68 21 -180 73 -354 161 -39 19 -57 37 -49 46 2
2 40 8 84 14 126 16 204 32 204 40 0 17 -35 18 -152 5 -67 -8 -201 -15 -298
-15 -96 0 -220 -2 -275 -5 -106 -6 -262 17 -315 47 -50 28 -140 91 -140 99 0
4 40 5 90 2 93 -6 211 7 290 33 53 18 236 106 265 127 19 14 19 16 3 22 -11 4
-37 -3 -65 -18 -27 -13 -59 -28 -73 -32 -14 -4 -38 -13 -55 -20 -133 -57 -245
-88 -305 -83 -42 3 -44 4 -20 15 156 69 267 133 253 146 -3 4 -1 13 6 20 33
41 19 295 -25 418 -14 41 -28 85 -31 98 -9 38 -105 167 -157 209 -57 48 -193
116 -271 137 -45 12 -141 19 -390 25 -324 9 -463 18 -637 43 l-87 12 22 21
c21 20 131 89 212 133 22 12 69 42 105 67 66 46 206 118 254 130 14 3 28 10
31 14 3 5 30 16 61 25 31 9 80 27 109 41 30 13 58 24 64 24 6 0 35 11 64 24
30 13 78 29 106 35 28 6 77 19 109 30 52 17 77 18 292 12 129 -3 240 -10 247
-14 17 -11 210 -37 333 -46 102 -7 193 -28 248 -57 30 -16 112 -19 112 -5 0 6
-38 22 -85 36 -79 25 -84 28 -74 47 12 22 59 44 110 53 19 3 75 14 124 25 128
27 125 27 285 29 93 1 172 -4 220 -14z m1873 -192 c45 -23 124 -91 156 -134
15 -21 68 -84 119 -141 50 -57 109 -129 129 -159 234 -345 266 -401 369 -644
48 -111 46 -137 -17 -214 -27 -34 -54 -73 -59 -87 -5 -13 -14 -24 -19 -24 -10
0 -51 83 -76 151 -7 21 -42 97 -78 170 -36 74 -76 159 -91 189 -14 30 -32 66
-40 80 -8 14 -22 41 -32 60 -99 202 -159 292 -275 407 -50 51 -113 105 -138
120 -25 15 -51 32 -57 38 -6 5 -36 28 -67 49 -55 38 -70 56 -46 56 17 0 132
57 159 79 30 25 24 24 63 4z m-337 -94 c6 -5 33 -21 59 -35 27 -14 74 -45 106
-69 31 -24 67 -49 80 -55 13 -7 42 -29 65 -49 22 -20 53 -48 70 -62 48 -42
124 -129 141 -163 9 -17 27 -45 39 -62 13 -17 24 -34 24 -38 0 -3 10 -23 23
-44 13 -20 32 -59 42 -87 10 -27 31 -72 47 -98 15 -26 28 -53 28 -59 0 -6 6
-19 14 -27 7 -9 37 -68 66 -131 52 -115 64 -139 93 -195 8 -16 26 -55 38 -85
29 -67 58 -110 76 -110 7 0 13 -8 13 -17 0 -30 -27 -145 -48 -208 -12 -33 -23
-78 -25 -100 -7 -59 -54 -234 -105 -385 -35 -105 -116 -272 -151 -309 -12 -13
-48 -65 -96 -139 -5 -8 -53 -66 -105 -127 -52 -62 -129 -154 -170 -205 -41
-52 -95 -116 -120 -144 -25 -28 -56 -67 -70 -86 -13 -19 -27 -37 -31 -40 -3
-3 -11 -14 -17 -25 -20 -38 -127 -147 -180 -184 -73 -49 -69 -47 -142 -79 -36
-16 -86 -39 -111 -50 -25 -11 -85 -34 -135 -51 -118 -39 -184 -69 -184 -83 0
-7 15 -9 40 -5 41 5 47 0 31 -31 -5 -9 -16 -37 -25 -62 -9 -25 -30 -67 -48
-94 -30 -44 -40 -51 -98 -69 -57 -18 -75 -19 -145 -10 -48 6 -102 20 -136 36
-31 15 -61 27 -67 27 -7 0 -12 3 -12 8 0 4 -12 13 -28 19 -15 7 -41 24 -57 38
-44 37 -152 119 -215 164 -63 45 -150 114 -278 223 -50 43 -128 103 -174 135
-46 31 -85 61 -86 65 -2 4 -29 25 -60 45 -32 21 -66 46 -77 55 -11 9 -29 23
-39 31 -27 20 -15 33 62 67 37 17 74 35 82 40 8 5 47 25 85 45 39 19 90 47
115 61 25 14 79 44 120 66 41 22 81 45 88 51 16 13 48 32 77 46 24 11 212 135
348 228 53 38 146 102 206 143 59 41 139 98 177 126 38 28 84 59 102 68 17 9
32 21 32 26 0 5 41 36 91 69 64 44 100 61 123 61 67 0 223 32 269 56 105 52
175 108 215 169 22 33 43 71 47 85 9 29 45 80 91 130 18 19 45 58 59 85 15 28
35 59 45 70 24 25 55 98 76 178 26 95 26 624 1 717 -10 36 -26 76 -36 90 -10
14 -21 36 -25 48 -14 44 -222 233 -292 264 -13 6 -24 15 -24 20 0 4 -6 8 -14
8 -7 0 -20 7 -27 16 -12 15 -11 16 11 9 14 -4 30 -11 36 -16z m-3015 -709 c23
-34 49 -96 69 -163 28 -94 32 -124 34 -230 1 -111 -1 -125 -22 -159 -52 -84
-244 -152 -462 -163 -254 -13 -446 -48 -577 -106 -55 -24 -64 -24 -91 4 -12
12 -64 66 -117 119 -52 54 -106 100 -120 104 -14 3 -25 10 -25 16 0 5 19 32
42 59 38 44 130 115 365 282 65 45 341 187 448 230 124 48 220 78 297 91 96
15 93 17 159 -84z m-1203 -825 c37 -8 81 -16 97 -17 26 -3 35 -12 66 -71 19
-37 51 -87 71 -111 36 -42 36 -44 41 -152 2 -60 8 -119 12 -131 5 -17 3 -23
-6 -23 -23 0 -90 124 -103 190 -8 38 -22 71 -38 88 -14 15 -34 41 -46 58 -34
50 -103 63 -202 39 -14 -3 -32 -1 -40 4 -12 8 -9 20 18 75 19 38 39 66 48 66
8 0 45 -7 82 -15z m81 -230 c14 -19 21 -42 21 -72 0 -54 -5 -64 -69 -133 -28
-30 -54 -63 -57 -73 -9 -27 -29 -15 -32 20 -4 41 27 108 69 153 12 13 16 37
15 98 -1 81 13 115 25 61 3 -15 16 -39 28 -54z m221 65 c42 -22 45 -31 34
-102 -4 -21 -10 -38 -14 -38 -4 0 -11 17 -15 38 -3 20 -18 56 -31 80 -14 23
-22 42 -19 42 3 0 24 -9 45 -20z m-383 -41 c47 -33 73 -65 73 -91 0 -23 -6
-23 -88 7 -38 14 -77 25 -86 25 -12 0 -16 9 -16 34 0 57 8 68 44 60 17 -4 50
-20 73 -35z m63 31 c0 -5 -4 -10 -9 -10 -6 0 -13 5 -16 10 -3 6 1 10 9 10 9 0
16 -4 16 -10z m1956 -81 c44 -23 84 -45 89 -49 26 -20 149 -62 225 -77 47 -9
86 -17 88 -19 2 -1 -46 -51 -105 -110 -60 -60 -134 -143 -164 -184 -54 -72
-119 -201 -119 -235 0 -9 -6 -28 -14 -44 -9 -16 -20 -96 -29 -199 -8 -95 -17
-175 -20 -178 -3 -4 -25 5 -49 19 -164 96 -311 163 -385 174 -22 3 -38 0 -48
-11 -9 -9 -20 -16 -25 -16 -10 0 -84 123 -107 178 -8 20 -24 56 -34 79 -13 29
-19 65 -19 114 0 64 4 78 31 121 18 27 43 55 58 63 14 8 44 30 66 49 41 37
103 90 165 143 19 17 45 33 57 37 13 4 42 26 65 48 54 51 169 138 184 138 6 0
47 -18 90 -41z m-2056 -76 c33 -10 60 -22 60 -28 -2 -39 -92 -72 -125 -45 -17
14 -21 90 -5 90 6 0 38 -8 70 -17z m437 -30 c-3 -10 -5 -2 -5 17 0 19 2 27 5
18 2 -10 2 -26 0 -35z m-193 -73 c-12 -14 -31 -44 -43 -67 -25 -50 -51 -57
-51 -15 0 19 15 44 50 82 27 30 50 62 51 70 1 8 5 2 8 -15 6 -23 3 -36 -15
-55z m167 -478 c43 -28 100 -57 354 -185 201 -102 225 -113 305 -148 79 -34
117 -59 90 -59 -8 0 -33 5 -55 10 -22 6 -83 19 -135 31 -130 29 -156 35 -225
54 -75 21 -228 79 -279 107 -21 11 -70 38 -110 59 -39 22 -95 51 -123 66 -29
15 -53 30 -53 34 0 4 15 10 33 13 18 3 48 15 67 25 48 27 79 26 131 -7z m1013
-382 c33 -12 33 -30 1 -30 -25 0 -85 25 -85 35 0 9 58 5 84 -5z m3878 -361
c12 -6 37 -28 58 -48 20 -20 57 -51 83 -70 52 -37 56 -53 28 -109 -10 -20 -21
-53 -25 -73 -10 -55 -27 -65 -79 -46 -23 9 -78 23 -122 32 -130 26 -137 30
-89 62 30 19 157 21 180 3 21 -18 38 -6 40 28 2 34 -6 38 -37 21 -11 -5 -29
-7 -39 -4 -21 7 -27 39 -10 50 12 7 13 35 2 35 -5 0 -18 -17 -30 -38 -18 -33
-30 -41 -79 -55 -49 -13 -61 -14 -79 -2 -19 12 -20 11 -21 -34 -1 -46 -1 -47
44 -65 25 -10 86 -27 135 -37 98 -20 120 -32 116 -63 -3 -21 -6 -21 -228 -17
-209 3 -271 9 -385 39 -22 6 -65 16 -95 22 -30 7 -89 27 -130 45 -75 32 -116
45 -239 71 -36 8 -67 17 -70 20 -3 4 9 18 28 33 19 14 72 64 118 110 l83 84
49 -7 c27 -4 71 -16 98 -28 67 -30 223 -36 313 -13 97 25 146 35 235 50 104
17 122 17 147 4z m-3079 -146 c23 -15 66 -43 96 -62 30 -20 75 -47 100 -61 25
-14 62 -36 81 -50 19 -14 80 -48 135 -77 281 -146 364 -184 415 -193 30 -6 66
-18 80 -28 14 -11 72 -43 129 -72 88 -45 108 -60 132 -99 16 -24 29 -49 29
-54 0 -17 54 -122 69 -134 27 -19 33 -3 11 31 -20 33 -27 66 -13 66 3 0 36
-16 72 -36 36 -20 127 -58 203 -84 213 -75 263 -106 405 -245 68 -66 142 -138
165 -161 61 -58 137 -149 176 -208 29 -45 33 -57 29 -103 -2 -29 -7 -56 -10
-60 -4 -3 -18 6 -32 21 -23 25 -31 27 -73 23 -78 -7 -150 -32 -292 -102 -74
-36 -153 -74 -175 -84 -22 -10 -65 -30 -95 -44 -141 -65 -176 -80 -272 -112
-57 -20 -132 -42 -167 -51 -36 -8 -69 -18 -75 -23 -6 -5 -33 -11 -61 -14 -27
-4 -84 -11 -125 -16 -97 -13 -273 -13 -329 0 -47 11 -127 70 -194 145 -63 70
-147 177 -147 187 0 5 -13 27 -29 50 -66 97 -177 310 -212 408 -12 35 -28 73
-35 84 -23 39 -82 312 -100 462 -13 114 -15 188 -10 295 10 215 29 368 50 401
10 15 20 27 22 27 3 0 23 -12 47 -27z"/>
<path d="M7200 6715 c0 -5 5 -17 10 -25 5 -8 10 -10 10 -5 0 6 -5 17 -10 25
-5 8 -10 11 -10 5z"/>
<path d="M7640 6050 c0 -5 9 -10 20 -10 11 0 20 5 20 10 0 6 -9 10 -20 10 -11
0 -20 -4 -20 -10z"/>
<path d="M7402 5733 c3 -15 13 -17 68 -14 70 3 83 7 75 22 -4 5 -38 9 -76 9
-62 0 -70 -2 -67 -17z"/>
<path d="M2990 6069 c-76 -9 -188 -34 -198 -43 -12 -13 23 -26 53 -21 206 34
446 45 547 24 29 -6 94 -26 143 -44 160 -58 248 -86 320 -99 39 -8 99 -23 134
-35 65 -21 163 -32 176 -19 11 10 -4 28 -24 28 -10 0 -81 16 -157 36 -76 19
-166 41 -199 49 -57 12 -156 45 -200 66 -11 5 -65 18 -120 30 -55 12 -118 25
-140 30 -49 10 -246 9 -335 -2z"/>
<path d="M1400 5963 c-120 -42 -204 -75 -214 -84 -13 -12 22 -4 69 16 22 10
82 30 134 46 52 16 97 32 100 34 10 11 -46 3 -89 -12z"/>
<path d="M1105 5851 c-33 -10 -69 -22 -80 -29 -11 -6 -45 -22 -77 -36 -52 -23
-76 -42 -66 -51 2 -3 39 14 82 35 44 22 87 40 96 40 10 0 23 6 29 14 7 8 26
18 42 21 16 4 31 11 34 16 4 5 5 9 3 8 -2 -1 -30 -9 -63 -18z"/>
<path d="M4332 5832 c-22 -15 21 -21 152 -23 113 -1 138 3 122 19 -11 10 -259
14 -274 4z"/>
<path d="M823 5725 c-18 -8 -33 -19 -33 -25 0 -6 10 -5 28 4 64 36 68 48 5 21z"/>
<path d="M3599 1869 c-107 -46 -193 -60 -409 -64 -129 -3 -165 -6 -165 -17 0
-53 522 -17 605 42 15 11 31 20 34 20 9 0 46 33 46 41 0 19 -33 12 -111 -22z"/>
</g>
</svg>
